name rise30.3154peak39.0474fall46.5389.mot
datacolumns 19
datarows 66
range 12.509955 12.618285
endheader
time	ground_force1_vx	ground_force1_vy	ground_force1_vz	ground_force1_px	ground_force1_py	ground_force1_pz	ground_force2_vx	ground_force2_vy	ground_force2_vz	ground_force2_px	ground_force2_py	ground_force2_pz	ground_torque1_x	ground_torque1_y	ground_torque1_z	ground_torque2_x	ground_torque2_y	ground_torque2_z	
12.509955	0.000000	0.000000	0.000000	0.000000	0.000000	0.000000	5.356087	700.015044	-46.640476	0.254764	0.000000	-0.117795	0.000000	0.000000	0.000000	0.000000	-22.710586	0.000000	
12.511620	0.000000	0.000000	0.000000	0.000000	0.000000	0.000000	4.928795	701.030493	-46.650708	0.254268	0.000000	-0.117750	0.000000	0.000000	0.000000	0.000000	-22.778935	0.000000	
12.513290	0.000000	0.000000	0.000000	0.000000	0.000000	0.000000	4.491133	702.099048	-46.664769	0.253740	0.000000	-0.117707	0.000000	0.000000	0.000000	0.000000	-22.850395	0.000000	
12.514957	0.000000	0.000000	0.000000	0.000000	0.000000	0.000000	4.042993	703.220690	-46.682827	0.253179	0.000000	-0.117667	0.000000	0.000000	0.000000	0.000000	-22.924980	0.000000	
12.516620	0.000000	0.000000	0.000000	0.000000	0.000000	0.000000	3.584303	704.395359	-46.705054	0.252584	0.000000	-0.117629	0.000000	0.000000	0.000000	0.000000	-23.002699	0.000000	
12.518288	0.000000	0.000000	0.000000	0.000000	0.000000	0.000000	3.115032	705.622939	-46.731623	0.251954	0.000000	-0.117594	0.000000	0.000000	0.000000	0.000000	-23.083560	0.000000	
12.519962	0.000000	0.000000	0.000000	0.000000	0.000000	0.000000	2.635187	706.903258	-46.762710	0.251289	0.000000	-0.117562	0.000000	0.000000	0.000000	0.000000	-23.167563	0.000000	
12.521621	0.000000	0.000000	0.000000	0.000000	0.000000	0.000000	2.144817	708.236082	-46.798491	0.250587	0.000000	-0.117532	0.000000	0.000000	0.000000	0.000000	-23.254705	0.000000	
12.523288	0.000000	0.000000	0.000000	0.000000	0.000000	0.000000	1.644010	709.621107	-46.839141	0.249851	0.000000	-0.117504	0.000000	0.000000	0.000000	0.000000	-23.344973	0.000000	
12.524952	0.000000	0.000000	0.000000	0.000000	0.000000	0.000000	1.132898	711.057955	-46.884832	0.249079	0.000000	-0.117480	0.000000	0.000000	0.000000	0.000000	-23.438350	0.000000	
12.526622	0.000000	0.000000	0.000000	0.000000	0.000000	0.000000	0.611653	712.546170	-46.935733	0.248271	0.000000	-0.117458	0.000000	0.000000	0.000000	0.000000	-23.534811	0.000000	
12.528292	0.000000	0.000000	0.000000	0.000000	0.000000	0.000000	0.080493	714.085212	-46.992010	0.247430	0.000000	-0.117439	0.000000	0.000000	0.000000	0.000000	-23.634320	0.000000	
12.529951	0.000000	0.000000	0.000000	0.000000	0.000000	0.000000	-0.460326	715.674450	-47.053823	0.246554	0.000000	-0.117423	0.000000	0.000000	0.000000	0.000000	-23.736833	0.000000	
12.531622	0.000000	0.000000	0.000000	0.000000	0.000000	0.000000	-1.010504	717.313163	-47.121323	0.245646	0.000000	-0.117409	0.000000	0.000000	0.000000	0.000000	-23.842296	0.000000	
12.533291	0.000000	0.000000	0.000000	0.000000	0.000000	0.000000	-1.569698	719.000534	-47.194656	0.244707	0.000000	-0.117398	0.000000	0.000000	0.000000	0.000000	-23.950646	0.000000	
12.534953	0.000000	0.000000	0.000000	0.000000	0.000000	0.000000	-2.137526	720.735642	-47.273959	0.243737	0.000000	-0.117390	0.000000	0.000000	0.000000	0.000000	-24.061806	0.000000	
12.536627	0.000000	0.000000	0.000000	0.000000	0.000000	0.000000	-2.713564	722.517467	-47.359356	0.242739	0.000000	-0.117384	0.000000	0.000000	0.000000	0.000000	-24.175689	0.000000	
12.538289	0.000000	0.000000	0.000000	0.000000	0.000000	0.000000	-3.297351	724.344880	-47.450964	0.241714	0.000000	-0.117381	0.000000	0.000000	0.000000	0.000000	-24.292196	0.000000	
12.539952	0.000000	0.000000	0.000000	0.000000	0.000000	0.000000	-3.888386	726.216646	-47.548884	0.240664	0.000000	-0.117380	0.000000	0.000000	0.000000	0.000000	-24.411217	0.000000	
12.541623	0.000000	0.000000	0.000000	0.000000	0.000000	0.000000	-4.486134	728.131420	-47.653208	0.239591	0.000000	-0.117381	0.000000	0.000000	0.000000	0.000000	-24.532629	0.000000	
12.543293	0.000000	0.000000	0.000000	0.000000	0.000000	0.000000	-5.090022	730.087744	-47.764012	0.238496	0.000000	-0.117385	0.000000	0.000000	0.000000	0.000000	-24.656296	0.000000	
12.544951	0.000000	0.000000	0.000000	0.000000	0.000000	0.000000	-5.699446	732.084050	-47.881356	0.237382	0.000000	-0.117390	0.000000	0.000000	0.000000	0.000000	-24.782070	0.000000	
12.546619	0.000000	0.000000	0.000000	0.000000	0.000000	0.000000	-6.313774	734.118657	-48.005288	0.236252	0.000000	-0.117398	0.000000	0.000000	0.000000	0.000000	-24.909793	0.000000	
12.548289	0.000000	0.000000	0.000000	0.000000	0.000000	0.000000	-6.932342	736.189773	-48.135837	0.235107	0.000000	-0.117407	0.000000	0.000000	0.000000	0.000000	-25.039292	0.000000	
12.549956	0.000000	0.000000	0.000000	0.000000	0.000000	0.000000	-7.554461	738.295494	-48.273016	0.233950	0.000000	-0.117417	0.000000	0.000000	0.000000	0.000000	-25.170384	0.000000	
12.551618	0.000000	0.000000	0.000000	0.000000	0.000000	0.000000	-8.179421	740.433806	-48.416820	0.232783	0.000000	-0.117429	0.000000	0.000000	0.000000	0.000000	-25.302877	0.000000	
12.553290	0.000000	0.000000	0.000000	0.000000	0.000000	0.000000	-8.806490	742.602589	-48.567228	0.231608	0.000000	-0.117443	0.000000	0.000000	0.000000	0.000000	-25.436565	0.000000	
12.554958	0.000000	0.000000	0.000000	0.000000	0.000000	0.000000	-9.434920	744.799615	-48.724199	0.230428	0.000000	-0.117457	0.000000	0.000000	0.000000	0.000000	-25.571235	0.000000	
12.556620	0.000000	0.000000	0.000000	0.000000	0.000000	0.000000	-10.063947	747.022557	-48.887674	0.229245	0.000000	-0.117472	0.000000	0.000000	0.000000	0.000000	-25.706662	0.000000	
12.558285	0.000000	0.000000	0.000000	0.000000	0.000000	0.000000	-10.692798	749.268985	-49.057574	0.228061	0.000000	-0.117488	0.000000	0.000000	0.000000	0.000000	-25.842615	0.000000	
12.559959	0.000000	0.000000	0.000000	0.000000	0.000000	0.000000	-11.320692	751.536376	-49.233801	0.226879	0.000000	-0.117505	0.000000	0.000000	0.000000	0.000000	-25.978855	0.000000	
12.561623	0.000000	0.000000	0.000000	0.000000	0.000000	0.000000	-11.946843	753.822118	-49.416240	0.225701	0.000000	-0.117522	0.000000	0.000000	0.000000	0.000000	-26.115133	0.000000	
12.563297	0.000000	0.000000	0.000000	0.000000	0.000000	0.000000	-12.570465	756.123510	-49.604755	0.224528	0.000000	-0.117539	0.000000	0.000000	0.000000	0.000000	-26.251198	0.000000	
12.564959	0.000000	0.000000	0.000000	0.000000	0.000000	0.000000	-13.190773	758.437772	-49.799189	0.223363	0.000000	-0.117557	0.000000	0.000000	0.000000	0.000000	-26.386792	0.000000	
12.566624	0.000000	0.000000	0.000000	0.000000	0.000000	0.000000	-13.806991	760.762052	-49.999370	0.222207	0.000000	-0.117574	0.000000	0.000000	0.000000	0.000000	-26.521652	0.000000	
12.568292	0.000000	0.000000	0.000000	0.000000	0.000000	0.000000	-14.418348	763.093427	-50.205104	0.221063	0.000000	-0.117592	0.000000	0.000000	0.000000	0.000000	-26.655514	0.000000	
12.569952	0.000000	0.000000	0.000000	0.000000	0.000000	0.000000	-15.024091	765.428913	-50.416181	0.219932	0.000000	-0.117609	0.000000	0.000000	0.000000	0.000000	-26.788109	0.000000	
12.571626	0.000000	0.000000	0.000000	0.000000	0.000000	0.000000	-15.623480	767.765473	-50.632371	0.218815	0.000000	-0.117625	0.000000	0.000000	0.000000	0.000000	-26.919169	0.000000	
12.573287	0.000000	0.000000	0.000000	0.000000	0.000000	0.000000	-16.215797	770.100020	-50.853429	0.217714	0.000000	-0.117641	0.000000	0.000000	0.000000	0.000000	-27.048424	0.000000	
12.574952	0.000000	0.000000	0.000000	0.000000	0.000000	0.000000	-16.800344	772.429429	-51.079093	0.216631	0.000000	-0.117656	0.000000	0.000000	0.000000	0.000000	-27.175607	0.000000	
12.576622	0.000000	0.000000	0.000000	0.000000	0.000000	0.000000	-17.376454	774.750543	-51.309083	0.215565	0.000000	-0.117671	0.000000	0.000000	0.000000	0.000000	-27.300451	0.000000	
12.578293	0.000000	0.000000	0.000000	0.000000	0.000000	0.000000	-17.943486	777.060182	-51.543106	0.214519	0.000000	-0.117684	0.000000	0.000000	0.000000	0.000000	-27.422693	0.000000	
12.579957	0.000000	0.000000	0.000000	0.000000	0.000000	0.000000	-18.500835	779.355148	-51.780856	0.213492	0.000000	-0.117697	0.000000	0.000000	0.000000	0.000000	-27.542075	0.000000	
12.581621	0.000000	0.000000	0.000000	0.000000	0.000000	0.000000	-19.047930	781.632238	-52.022011	0.212486	0.000000	-0.117708	0.000000	0.000000	0.000000	0.000000	-27.658342	0.000000	
12.583289	0.000000	0.000000	0.000000	0.000000	0.000000	0.000000	-19.584241	783.888246	-52.266240	0.211501	0.000000	-0.117719	0.000000	0.000000	0.000000	0.000000	-27.771248	0.000000	
12.584954	0.000000	0.000000	0.000000	0.000000	0.000000	0.000000	-20.109279	786.119979	-52.513200	0.210538	0.000000	-0.117728	0.000000	0.000000	0.000000	0.000000	-27.880553	0.000000	
12.586625	0.000000	0.000000	0.000000	0.000000	0.000000	0.000000	-20.622600	788.324259	-52.762539	0.209595	0.000000	-0.117735	0.000000	0.000000	0.000000	0.000000	-27.986028	0.000000	
12.588291	0.000000	0.000000	0.000000	0.000000	0.000000	0.000000	-21.123809	790.497936	-53.013895	0.208675	0.000000	-0.117742	0.000000	0.000000	0.000000	0.000000	-28.087450	0.000000	
12.589961	0.000000	0.000000	0.000000	0.000000	0.000000	0.000000	-21.612559	792.637890	-53.266901	0.207775	0.000000	-0.117746	0.000000	0.000000	0.000000	0.000000	-28.184612	0.000000	
12.591619	0.000000	0.000000	0.000000	0.000000	0.000000	0.000000	-22.088556	794.741046	-53.521185	0.206897	0.000000	-0.117750	0.000000	0.000000	0.000000	0.000000	-28.277315	0.000000	
12.593291	0.000000	0.000000	0.000000	0.000000	0.000000	0.000000	-22.551561	796.804378	-53.776368	0.206039	0.000000	-0.117752	0.000000	0.000000	0.000000	0.000000	-28.365374	0.000000	
12.594955	0.000000	0.000000	0.000000	0.000000	0.000000	0.000000	-23.001390	798.824915	-54.032070	0.205202	0.000000	-0.117753	0.000000	0.000000	0.000000	0.000000	-28.448619	0.000000	
12.596621	0.000000	0.000000	0.000000	0.000000	0.000000	0.000000	-23.437918	800.799752	-54.287909	0.204384	0.000000	-0.117752	0.000000	0.000000	0.000000	0.000000	-28.526894	0.000000	
12.598290	0.000000	0.000000	0.000000	0.000000	0.000000	0.000000	-23.861079	802.726054	-54.543503	0.203585	0.000000	-0.117749	0.000000	0.000000	0.000000	0.000000	-28.600059	0.000000	
12.599956	0.000000	0.000000	0.000000	0.000000	0.000000	0.000000	-24.270868	804.601064	-54.798472	0.202803	0.000000	-0.117745	0.000000	0.000000	0.000000	0.000000	-28.667990	0.000000	
12.601624	0.000000	0.000000	0.000000	0.000000	0.000000	0.000000	-24.667341	806.422110	-55.052436	0.202039	0.000000	-0.117740	0.000000	0.000000	0.000000	0.000000	-28.730579	0.000000	
12.603291	0.000000	0.000000	0.000000	0.000000	0.000000	0.000000	-25.050615	808.186608	-55.305020	0.201290	0.000000	-0.117733	0.000000	0.000000	0.000000	0.000000	-28.787738	0.000000	
12.604956	0.000000	0.000000	0.000000	0.000000	0.000000	0.000000	-25.420871	809.892067	-55.555855	0.200555	0.000000	-0.117725	0.000000	0.000000	0.000000	0.000000	-28.839394	0.000000	
12.606626	0.000000	0.000000	0.000000	0.000000	0.000000	0.000000	-25.778352	811.536097	-55.804576	0.199834	0.000000	-0.117715	0.000000	0.000000	0.000000	0.000000	-28.885493	0.000000	
12.608284	0.000000	0.000000	0.000000	0.000000	0.000000	0.000000	-26.123363	813.116413	-56.050826	0.199125	0.000000	-0.117704	0.000000	0.000000	0.000000	0.000000	-28.926002	0.000000	
12.609952	0.000000	0.000000	0.000000	0.000000	0.000000	0.000000	-26.456273	814.630832	-56.294255	0.198427	0.000000	-0.117692	0.000000	0.000000	0.000000	0.000000	-28.960902	0.000000	
12.611623	0.000000	0.000000	0.000000	0.000000	0.000000	0.000000	-26.777509	816.077286	-56.534523	0.197737	0.000000	-0.117678	0.000000	0.000000	0.000000	0.000000	-28.990196	0.000000	
12.613292	0.000000	0.000000	0.000000	0.000000	0.000000	0.000000	-27.087562	817.453815	-56.771299	0.197056	0.000000	-0.117663	0.000000	0.000000	0.000000	0.000000	-29.013905	0.000000	
12.614953	0.000000	0.000000	0.000000	0.000000	0.000000	0.000000	-27.386979	818.758575	-57.004261	0.196381	0.000000	-0.117647	0.000000	0.000000	0.000000	0.000000	-29.032069	0.000000	
12.616617	0.000000	0.000000	0.000000	0.000000	0.000000	0.000000	-27.676368	819.989836	-57.233099	0.195710	0.000000	-0.117630	0.000000	0.000000	0.000000	0.000000	-29.044745	0.000000	
12.618285	0.000000	0.000000	0.000000	0.000000	0.000000	0.000000	-27.956390	821.145984	-57.457514	0.195043	0.000000	-0.117611	0.000000	0.000000	0.000000	0.000000	-29.052010	0.000000	
